<?xml version="1.0" encoding="UTF-8" standalone="no"?>
<!-- Created with Inkscape (http://www.inkscape.org/) -->

<svg
   width="48"
   height="48"
   viewBox="0 0 12.7 12.7"
   version="1.1"
   id="svg1"
   inkscape:version="1.3.2 (091e20ef0f, 2023-11-25, custom)"
   sodipodi:docname="channel.svg"
   xmlns:inkscape="http://www.inkscape.org/namespaces/inkscape"
   xmlns:sodipodi="http://sodipodi.sourceforge.net/DTD/sodipodi-0.dtd"
   xmlns="http://www.w3.org/2000/svg"
   xmlns:svg="http://www.w3.org/2000/svg">
  <sodipodi:namedview
     id="namedview1"
     pagecolor="#ffffff"
     bordercolor="#000000"
     borderopacity="0.25"
     inkscape:showpageshadow="2"
     inkscape:pageopacity="0.0"
     inkscape:pagecheckerboard="0"
     inkscape:deskcolor="#d1d1d1"
     inkscape:document-units="mm"
     inkscape:zoom="5.6515713"
     inkscape:cx="3.8927227"
     inkscape:cy="19.729026"
     inkscape:window-width="1920"
     inkscape:window-height="1011"
     inkscape:window-x="0"
     inkscape:window-y="32"
     inkscape:window-maximized="1"
     inkscape:current-layer="layer1" />
  <defs
     id="defs1" />
  <g
     inkscape:label="Layer 1"
     inkscape:groupmode="layer"
     id="layer1">
    <circle
       style="fill:#b7b7b7;fill-opacity:1;stroke:none;stroke-width:0.991013;stroke-linecap:round;stroke-linejoin:round"
       id="path1"
       cx="6.3499999"
       cy="6.3499999"
       r="6.3499999" />
    <g
       id="g4"
       transform="translate(-0.12312048,0.21959433)">
      <path
         id="ellipse1"
         style="fill:#ffffff;fill-opacity:1;stroke:none;stroke-width:0.789475;stroke-linecap:round;stroke-linejoin:round;stroke-opacity:1"
         d="M 8.0599731,2.8484049 A 3.3200855,2.3834965 0 0 0 4.8839396,4.5495931 3.5682714,2.6518543 0 0 1 8.2227539,7.1954264 3.5682714,2.6518543 0 0 1 8.1736613,7.6098714 3.3200855,2.3834965 0 0 0 11.380184,5.231722 3.3200855,2.3834965 0 0 0 8.0599731,2.8484049 Z" />
      <path
         style="fill:#ffffff;fill-opacity:1;stroke:none;stroke-width:0.795441;stroke-linecap:round;stroke-linejoin:round;stroke-opacity:1"
         d="m 8.5724394,7.3222038 c 0,0 0.6439697,0.675666 1.8559466,0.7396447 C 9.9982283,7.6915244 9.7716043,7.1791119 9.7510065,6.804644"
         id="path4"
         sodipodi:nodetypes="ccc" />
      <ellipse
         style="fill:#ffffff;fill-opacity:1;stroke:none;stroke-width:0.734334;stroke-linecap:round;stroke-linejoin:round;stroke-opacity:1"
         id="path2"
         cx="-4.6542501"
         cy="7.1953859"
         rx="3.0881932"
         ry="2.2170205"
         transform="scale(-1,1)" />
    </g>
    <path
       style="fill:#ffffff;fill-opacity:1;stroke:none;stroke-width:0.739883;stroke-linecap:round;stroke-linejoin:round;stroke-opacity:1"
       d="m 4.1778128,9.1398723 c 0,0 -0.5989915,0.6284739 -1.7263171,0.687984 C 2.8516085,9.4833976 3.0624039,9.0067747 3.0815631,8.6584616"
       id="path3"
       sodipodi:nodetypes="ccc" />
  </g>
</svg>
