<?xml version="1.0" encoding="UTF-8" standalone="no"?>
<!-- Created with Inkscape (http://www.inkscape.org/) -->

<svg
   xmlns:dc="http://purl.org/dc/elements/1.1/"
   xmlns:cc="http://creativecommons.org/ns#"
   xmlns:rdf="http://www.w3.org/1999/02/22-rdf-syntax-ns#"
   xmlns:svg="http://www.w3.org/2000/svg"
   xmlns="http://www.w3.org/2000/svg"
   xmlns:sodipodi="http://sodipodi.sourceforge.net/DTD/sodipodi-0.dtd"
   xmlns:inkscape="http://www.inkscape.org/namespaces/inkscape"
   width="150"
   height="100"
   id="svg2"
   version="1.1"
   inkscape:version="0.92.2 5c3e80d, 2017-08-06"
   sodipodi:docname="Cone Logo_1.svg">
  <title
     id="title817">Project: Cone logo_ pathOut</title>
  <defs
     id="defs4" />
  <sodipodi:namedview
     id="base"
     pagecolor="#ffffff"
     bordercolor="#666666"
     borderopacity="1.0"
     inkscape:pageopacity="0.0"
     inkscape:pageshadow="2"
     inkscape:zoom="6.4276006"
     inkscape:cx="30.871443"
     inkscape:cy="49.277043"
     inkscape:document-units="px"
     inkscape:current-layer="layer1"
     showgrid="false"
     showguides="true"
     inkscape:guide-bbox="true"
     inkscape:window-width="1920"
     inkscape:window-height="1025"
     inkscape:window-x="0"
     inkscape:window-y="27"
     inkscape:window-maximized="1" />
  <metadata
     id="metadata7">
    <rdf:RDF>
      <cc:Work
         rdf:about="">
        <dc:format>image/svg+xml</dc:format>
        <dc:type
           rdf:resource="http://purl.org/dc/dcmitype/StillImage" />
        <dc:title>Project: Cone logo_ pathOut</dc:title>
        <cc:license
           rdf:resource="http://creativecommons.org/licenses/by-nd/4.0/" />
        <dc:date>2015-01-03</dc:date>
        <dc:creator>
          <cc:Agent>
            <dc:title>최성수</dc:title>
          </cc:Agent>
        </dc:creator>
        <dc:rights>
          <cc:Agent>
            <dc:title>Project: Cone</dc:title>
          </cc:Agent>
        </dc:rights>
        <dc:publisher>
          <cc:Agent>
            <dc:title>최성수</dc:title>
          </cc:Agent>
        </dc:publisher>
        <dc:language>English</dc:language>
        <dc:subject>
          <rdf:Bag>
            <rdf:li>CI</rdf:li>
          </rdf:Bag>
        </dc:subject>
        <dc:description>Project: Cone 기본 로고, 패스 호환</dc:description>
        <dc:coverage>Community 작업자의 내외부 공개 작업물</dc:coverage>
      </cc:Work>
      <cc:License
         rdf:about="http://creativecommons.org/licenses/by-nd/4.0/">
        <cc:permits
           rdf:resource="http://creativecommons.org/ns#Reproduction" />
        <cc:permits
           rdf:resource="http://creativecommons.org/ns#Distribution" />
        <cc:requires
           rdf:resource="http://creativecommons.org/ns#Notice" />
        <cc:requires
           rdf:resource="http://creativecommons.org/ns#Attribution" />
      </cc:License>
    </rdf:RDF>
  </metadata>
  <g
     inkscape:label="Layer 1"
     inkscape:groupmode="layer"
     id="layer1"
     transform="translate(0,-952.36215)">
    <path
       style="fill:#ff754e;fill-opacity:1;stroke:none"
       d="m 27.275182,1019.4664 -2.501249,-38.62459 29.846736,23.69999"
       id="path3787"
       inkscape:connector-curvature="0"
       sodipodi:nodetypes="ccc" />
    <path
       style="fill:#ffd94e;fill-opacity:1;stroke:none"
       d="m 56.898171,1006.3144 c 0.781903,1.6293 -4.011039,8.4656 -12.935853,13.3376 -8.924797,4.8719 -15.197473,4.6953 -16.103307,3.1263 -1.303647,-2.7169 2.307436,-7.7017 11.232249,-12.5737 8.924796,-4.8719 16.503249,-6.6069 17.806911,-3.8902 z"
       id="path3017"
       inkscape:connector-curvature="0"
       sodipodi:nodetypes="cscsc" />
    <path
       style="font-size:medium;font-style:normal;font-variant:normal;font-weight:normal;font-stretch:normal;text-indent:0;text-align:start;text-decoration:none;line-height:normal;letter-spacing:normal;word-spacing:normal;text-transform:none;direction:ltr;block-progression:tb;writing-mode:lr-tb;text-anchor:start;baseline-shift:baseline;color:#000000;fill:#44a6fa;fill-opacity:1;stroke:none;stroke-width:3;marker:none;visibility:visible;display:inline;overflow:visible;enable-background:accumulate;font-family:Sans;-inkscape-font-specification:Sans"
       d="M 61.09375 21.65625 C 60.419032 21.703269 59.78062 21.812325 59.1875 22 C 58.59438 22.18767 58.053133 22.44622 57.5625 22.875 C 57.071867 23.30378 56.625 24.008 56.625 24.8125 L 56.625 42.46875 L 59.625 42.46875 L 59.625 33.21875 C 61.696751 33.21075 63.630635 33.21375 65.3125 32.75 C 66.337011 32.46779 67.335934 31.98342 68.0625 31.125 C 68.789066 30.26658 69.179454 29.09673 69.21875 27.8125 C 69.27581 25.94784 68.436999 24.36024 67.25 23.375 C 66.063001 22.38976 64.603519 21.90775 63.1875 21.71875 C 62.47949 21.62425 61.768468 21.609231 61.09375 21.65625 z M 61.3125 24.65625 C 61.779557 24.61789 62.280756 24.620695 62.78125 24.6875 C 63.782239 24.82111 64.719864 25.1956 65.3125 25.6875 C 65.905136 26.1794 66.250017 26.69691 66.21875 27.71875 C 66.19416 28.5225 66.007892 28.91973 65.78125 29.1875 C 65.554608 29.45527 65.186587 29.66323 64.53125 29.84375 C 63.507554 30.12574 61.558586 30.12898 59.625 30.15625 L 59.625 25.09375 C 59.70364 25.04005 59.82591 24.95975 60.09375 24.875 C 60.412529 24.774135 60.845443 24.69461 61.3125 24.65625 z M 122.46875 29.21875 C 122.46875 29.21875 122.3109 31.055558 122.21875 32.125 C 122.15202 32.125235 122.09784 32.125 122.03125 32.125 C 120.14351 32.125 118.34375 32.0625 118.34375 32.0625 L 118.25 35.0625 C 118.25 35.0625 120.06 35.123002 121.96875 35.125 C 121.96634 35.156143 121.97115 35.156348 121.96875 35.1875 C 121.85331 36.68543 121.75032 38.1733 121.6875 39.34375 C 121.6561 39.92897 121.629 40.41961 121.625 40.8125 C 121.623 41.00895 121.6138 41.20334 121.625 41.375 C 121.631 41.4608 121.6644 41.52974 121.6875 41.65625 C 121.7106 41.78276 121.5967 41.93049 122.03125 42.4375 C 122.50817 42.9939 122.58258 42.87609 122.78125 42.96875 C 122.97992 43.06145 123.22368 43.12956 123.46875 43.21875 C 123.95889 43.39712 124.54334 43.58896 125.1875 43.75 C 125.83166 43.91104 126.52553 44.06649 127.1875 44.125 C 127.84947 44.1835 128.47365 44.24755 129.28125 43.84375 L 127.9375 41.15625 C 128.17568 41.03716 127.8596 41.1622 127.4375 41.125 C 127.01539 41.0877 126.44473 40.97837 125.90625 40.84375 C 125.43857 40.72683 125.01415 40.59264 124.65625 40.46875 C 124.66425 40.18381 124.6663 39.90526 124.6875 39.5 C 124.7479 38.37498 124.85423 36.89229 124.96875 35.40625 C 124.98209 35.233114 124.98663 35.234806 125 35.0625 C 125.35756 35.042172 125.70623 35.007189 126 34.96875 C 126.33933 34.92435 126.5442 34.96175 127.09375 34.65625 C 127.2158 34.58845 128.0844 34.23228 128.78125 34 C 129.4781 33.76772 130.09375 33.59375 130.09375 33.59375 L 129.21875 30.71875 C 129.21875 30.71875 128.59235 30.90672 127.84375 31.15625 C 127.16982 31.38089 126.46234 31.62511 125.84375 31.9375 C 125.81605 31.9483 125.69836 31.9863 125.59375 32 C 125.51427 32.010409 125.35902 32.023361 125.25 32.03125 C 125.3183 31.181991 125.4375 29.5 125.4375 29.5 L 122.46875 29.21875 z M 94.40625 30.65625 C 91.910348 30.712158 89.75 31.3125 89.75 31.3125 L 90.5 34.21875 C 90.5 34.21875 94.130207 33.37482 96.40625 33.78125 L 96.9375 30.8125 C 96.094091 30.661892 95.238217 30.637614 94.40625 30.65625 z M 75.9375 31.375 C 75.675551 31.387433 75.435316 31.39877 75.1875 31.4375 C 74.196237 31.59242 73.324861 31.94787 72.59375 32.46875 C 72.325067 32.66017 72.165334 32.93511 71.9375 33.15625 L 71.9375 32.28125 L 68.9375 32.28125 L 68.9375 42.46875 C 68.937588 42.47075 68.9375 42.53125 68.9375 42.53125 L 71.9375 42.46875 L 71.9375 42.40625 C 71.9375 42.40625 71.8539 39.73729 72.625 37.5 C 73.010552 36.38136 73.570972 35.4658 74.3125 34.9375 C 75.054028 34.4092 76.02269 34.10475 77.75 34.53125 L 78.46875 31.625 C 77.584269 31.406607 76.723348 31.337701 75.9375 31.375 z M 104.03125 32.09375 C 101.89137 32.06185 100.02894 33.31482 98.78125 34.9375 C 97.53356 36.56018 96.847998 38.93773 98.09375 40.9375 C 99.082914 42.52537 100.45874 43.549 101.96875 43.9375 C 103.47876 44.326 105.0152 44.11994 106.5 43.625 L 105.5625 40.78125 C 104.41923 41.16234 103.46452 41.22312 102.71875 41.03125 C 102.11138 40.87498 101.57625 40.47668 101.03125 39.78125 L 105.59375 39.4375 L 106.5625 39.34375 L 106.875 38.40625 C 106.875 38.40625 107.33558 37.19704 107.34375 35.78125 C 107.34775 35.07336 107.24865 34.2593 106.71875 33.46875 C 106.18883 32.6782 105.13091 32.11016 104.03125 32.09375 z M 113.9375 33.09375 C 113.242 33.16285 112.49349 33.39947 111.8125 33.90625 C 110.57186 34.82952 109.45276 36.27529 108.90625 38 C 108.63299 38.86235 108.50491 39.83595 108.78125 40.8125 C 109.05759 41.78905 109.76934 42.68272 110.78125 43.25 C 114.37317 45.26365 117.65625 43.03125 117.65625 43.03125 L 115.84375 40.625 C 115.84375 40.625 114.45333 41.85518 112.28125 40.65625 L 112.25 40.65625 C 111.81646 40.41321 111.72348 40.23757 111.65625 40 C 111.58905 39.76243 111.6017 39.37437 111.75 38.90625 C 112.04667 37.97001 112.95094 36.79087 113.59375 36.3125 C 114.11524 35.92442 114.41291 36.01996 114.8125 36.15625 C 115.21209 36.29254 115.46875 36.5 115.46875 36.5 L 117.46875 34.25 C 117.46875 34.25 116.79425 33.65802 115.78125 33.3125 C 115.27475 33.13974 114.633 33.02462 113.9375 33.09375 z M 83.90625 33.15625 C 80.969174 33.15625 78.358205 35.13711 77.65625 38 C 77.228619 39.74408 77.992204 41.42934 79.125 42.4375 C 80.257796 43.44566 81.738223 43.96875 83.25 43.96875 C 86.331181 43.96875 88.84375 41.45618 88.84375 38.375 C 88.84375 36.97847 88.482706 35.6454 87.59375 34.65625 C 86.704794 33.6671 85.360401 33.15625 83.90625 33.15625 z M 104 35.09375 C 104.18384 35.09625 104.23542 35.120725 104.25 35.125 C 104.2657 35.1484 104.34595 35.41483 104.34375 35.78125 C 104.34175 36.11293 104.28465 36.22449 104.21875 36.53125 L 101.1875 36.75 C 101.94697 35.78512 103.21459 35.08203 104 35.09375 z M 83.90625 36.15625 C 84.722622 36.15625 85.071869 36.35372 85.34375 36.65625 C 85.615631 36.95878 85.84375 37.50099 85.84375 38.375 C 85.84375 39.83486 84.709863 40.96875 83.25 40.96875 C 82.49125 40.96875 81.596095 40.63457 81.09375 40.1875 C 80.591405 39.74043 80.432589 39.37604 80.59375 38.71875 C 80.973189 37.17122 82.302274 36.15625 83.90625 36.15625 z M 94.9375 37.46875 L 91.9375 37.53125 C 91.9375 37.53125 92.02972 40.41213 91.90625 43.40625 C 91.84452 44.90331 91.713179 46.45236 91.53125 47.59375 C 91.44029 48.1644 91.348871 48.62135 91.25 48.90625 C 91.22528 48.97725 91.21148 48.99225 91.1875 49.03125 C 90.753024 49.27545 89.702174 49.5726 88.75 49.6875 C 87.749232 49.8083 86.9375 49.8125 86.9375 49.8125 L 86.9375 52.8125 C 86.9375 52.8125 87.931474 52.8315 89.125 52.6875 C 90.318526 52.5435 91.736211 52.3088 92.96875 51.5 C 93.709113 51.0141 93.868956 50.46415 94.0625 49.90625 C 94.256044 49.34845 94.392343 48.7379 94.5 48.0625 C 94.715314 46.71166 94.841875 45.09234 94.90625 43.53125 C 95.034999 40.40907 94.9375 37.46875 94.9375 37.46875 z "
       transform="translate(0,952.36215)"
       id="path3789" />
    <path
       style="font-size:medium;font-style:normal;font-variant:normal;font-weight:normal;font-stretch:normal;text-indent:0;text-align:start;text-decoration:none;line-height:normal;letter-spacing:normal;word-spacing:normal;text-transform:none;direction:ltr;block-progression:tb;writing-mode:lr-tb;text-anchor:start;baseline-shift:baseline;color:#000000;fill:#00c1ff;fill-opacity:1;stroke:none;stroke-width:4;marker:none;visibility:visible;display:inline;overflow:visible;enable-background:accumulate;font-family:Sans;-inkscape-font-specification:Sans"
       d="M 75.375 49.90625 C 74.71308 49.927887 74.035163 50.02105 73.34375 50.21875 C 71.499982 50.74625 69.693605 52.0398 68.3125 54.125 C 65.851327 57.8409 64.609308 61.12325 64.84375 64.15625 C 65.078192 67.18935 66.983832 69.69085 69.6875 71.28125 C 72.774277 73.09705 76.283818 72.57315 78.9375 71.84375 C 81.591182 71.11425 83.59375 70.03125 83.59375 70.03125 L 81.6875 66.5 C 81.6875 66.5 80.029936 67.4076 77.875 68 C 75.720064 68.5924 73.281061 68.7315 71.71875 67.8125 C 69.773334 66.6681 68.973943 65.52805 68.84375 63.84375 C 68.713557 62.15935 69.468336 59.64705 71.65625 56.34375 C 72.599689 54.91935 73.50378 54.3297 74.4375 54.0625 C 75.37122 53.7953 76.410982 53.87525 77.4375 54.15625 C 79.490537 54.71785 81.21875 56.0625 81.21875 56.0625 L 83.71875 52.9375 C 83.71875 52.9375 81.529055 51.141 78.5 50.3125 C 77.742736 50.1054 76.899708 49.93845 76.03125 49.90625 C 75.814135 49.89825 75.59564 49.899038 75.375 49.90625 z M 102.71875 55.96875 L 102.71875 71 C 102.71883 71 102.71875 71.09375 102.71875 71.09375 L 106.71875 71 L 106.71875 70.90625 C 106.71875 70.90625 106.63045 68.8545 107.03125 66.625 C 107.43202 64.3955 108.37894 62.38765 109.5625 61.84375 C 110.89203 61.23265 112.33567 61.25535 113.375 61.71875 C 114.41433 62.18205 115.09024 62.92225 115.21875 64.34375 C 115.29345 65.16965 115.19845 67.01605 115.0625 68.53125 C 114.92652 70.04655 114.75 71.28135 114.75 71.28125 L 118.71875 71.8125 C 118.71875 71.8125 118.88743 70.50895 119.03125 68.90625 C 119.17507 67.30365 119.32043 65.4703 119.1875 64 C 118.93697 61.2287 117.19272 59.0401 115 58.0625 C 112.80728 57.0849 110.2069 57.14685 107.875 58.21875 C 107.41885 58.42835 107.09294 58.75085 106.71875 59.03125 L 106.71875 55.96875 L 102.71875 55.96875 z M 91.84375 56.15625 C 87.4657 56.351615 83.75 59.651469 83.75 63.96875 C 83.75 68.57375 87.749129 72.22475 92.5 72.46875 C 97.251024 72.71245 101.46875 69.2926 101.46875 64.6875 C 101.46875 60.0824 97.46983 56.39985 92.71875 56.15625 C 92.421815 56.141031 92.13562 56.143226 91.84375 56.15625 z M 128.96875 56.34375 L 128.96875 56.375 C 126.13309 56.397 123.97316 58.36185 122.75 60.65625 C 121.50745 62.98715 121.06313 65.9928 122.625 68.5 C 123.89311 70.5356 125.64921 71.8747 127.59375 72.375 C 129.53829 72.8753 131.5066 72.5708 133.40625 71.9375 L 132.15625 68.15625 C 130.71206 68.63775 129.51931 68.7382 128.59375 68.5 C 127.78894 68.2929 127.07414 67.753 126.34375 66.75 L 133.21875 66.875 L 134.75 66.90625 L 135.15625 65.4375 C 135.15625 65.4375 135.80546 63.42305 135.4375 61.15625 C 135.25352 60.02295 134.7805 58.70975 133.65625 57.71875 C 132.55816 56.75065 130.94152 56.28215 129.09375 56.34375 C 129.07175 56.34445 129.05335 56.34285 129.03125 56.34375 C 129.00915 56.34455 128.99095 56.34375 128.96875 56.34375 z M 92.5 60.15625 C 95.312662 60.30055 97.46875 62.484 97.46875 64.6875 C 97.46875 66.891 95.531468 68.6443 92.71875 68.5 C 89.905895 68.3556 87.75 66.17225 87.75 63.96875 C 87.75 61.76515 89.687233 60.01205 92.5 60.15625 z M 129.0625 60.34375 L 129.125 60.34375 L 129.1875 60.34375 C 130.3659 60.28775 130.76488 60.51145 131 60.71875 C 131.23512 60.92595 131.41277 61.2751 131.5 61.8125 C 131.5719 62.2554 131.4821 62.40685 131.4375 62.84375 L 126.21875 62.75 C 126.25355 62.677 126.24295 62.60325 126.28125 62.53125 C 127.01774 61.14975 128.2303 60.33165 129.0625 60.34375 z "
       transform="translate(0,952.36215)"
       id="path3807" />
    <path
       style="font-size:medium;font-style:normal;font-variant:normal;font-weight:normal;font-stretch:normal;text-indent:0;text-align:start;text-decoration:none;line-height:normal;letter-spacing:normal;word-spacing:normal;text-transform:none;direction:ltr;block-progression:tb;writing-mode:lr-tb;text-anchor:start;baseline-shift:baseline;color:#000000;fill:#30564e;fill-opacity:1;stroke:none;stroke-width:3;marker:none;visibility:visible;display:inline;overflow:visible;enable-background:accumulate;font-family:Sans;-inkscape-font-specification:Sans"
       d="m 23.041909,977.33447 c 0.85754,16.37984 0.923509,39.09323 1.470201,43.99023 0.507436,4.5454 6.357873,7.5122 20.254545,0.2402 13.396448,-7.0103 15.088065,-14.5001 11.114671,-17.5259 -11.741657,-8.94161 -21.256375,-16.48711 -32.839417,-26.70473 z m 3.85533,7.26437 23.768543,19.19216 c -10.400747,1.9598 -21.204111,9.1072 -22.738615,13.2962 z m 27.272414,24.28126 c -1.298829,6.4283 -17.754233,14.2181 -22.66703,13.9034 -4.743916,-0.3039 0.745632,-8.1252 11.359681,-13.0156 6.360256,-2.9305 12.06569,-4.6411 11.307349,-0.8878 z"
       id="path3768"
       inkscape:connector-curvature="0"
       sodipodi:nodetypes="csssccsccsssss" />
  </g>
</svg>
